<?xml version="1.0" standalone="no"?>
<svg xmlns:xlink="http://www.w3.org/1999/xlink" id="wave" style="transform:rotate(180deg); transition: 0.3s" viewBox="0 0 1440 180" version="1.1" xmlns="http://www.w3.org/2000/svg"><defs><linearGradient id="sw-gradient-0" x1="0" x2="0" y1="1" y2="0"><stop stop-color="rgba(244, 140, 6, 1)" offset="0%"/><stop stop-color="rgba(244, 140, 6, 1)" offset="100%"/></linearGradient></defs><path style="transform:translate(0, 0px); opacity:1" fill="url(#sw-gradient-0)" d="M0,0L48,24C96,48,192,96,288,117C384,138,480,132,576,114C672,96,768,66,864,54C960,42,1056,48,1152,69C1248,90,1344,126,1440,135C1536,144,1632,126,1728,108C1824,90,1920,72,2016,72C2112,72,2208,90,2304,87C2400,84,2496,60,2592,42C2688,24,2784,12,2880,21C2976,30,3072,60,3168,72C3264,84,3360,78,3456,75C3552,72,3648,72,3744,72C3840,72,3936,72,4032,84C4128,96,4224,120,4320,123C4416,126,4512,108,4608,84C4704,60,4800,30,4896,15C4992,0,5088,0,5184,15C5280,30,5376,60,5472,66C5568,72,5664,54,5760,60C5856,66,5952,96,6048,93C6144,90,6240,54,6336,51C6432,48,6528,78,6624,93C6720,108,6816,108,6864,108L6912,108L6912,180L6864,180C6816,180,6720,180,6624,180C6528,180,6432,180,6336,180C6240,180,6144,180,6048,180C5952,180,5856,180,5760,180C5664,180,5568,180,5472,180C5376,180,5280,180,5184,180C5088,180,4992,180,4896,180C4800,180,4704,180,4608,180C4512,180,4416,180,4320,180C4224,180,4128,180,4032,180C3936,180,3840,180,3744,180C3648,180,3552,180,3456,180C3360,180,3264,180,3168,180C3072,180,2976,180,2880,180C2784,180,2688,180,2592,180C2496,180,2400,180,2304,180C2208,180,2112,180,2016,180C1920,180,1824,180,1728,180C1632,180,1536,180,1440,180C1344,180,1248,180,1152,180C1056,180,960,180,864,180C768,180,672,180,576,180C480,180,384,180,288,180C192,180,96,180,48,180L0,180Z"/><defs><linearGradient id="sw-gradient-1" x1="0" x2="0" y1="1" y2="0"><stop stop-color="rgba(250, 161, 8, 1)" offset="0%"/><stop stop-color="rgba(250, 161, 8, 1)" offset="100%"/></linearGradient></defs><path style="transform:translate(0, 50px); opacity:0.9" fill="url(#sw-gradient-1)" d="M0,54L48,60C96,66,192,78,288,90C384,102,480,114,576,102C672,90,768,54,864,39C960,24,1056,30,1152,48C1248,66,1344,96,1440,105C1536,114,1632,102,1728,90C1824,78,1920,66,2016,54C2112,42,2208,30,2304,21C2400,12,2496,6,2592,9C2688,12,2784,24,2880,45C2976,66,3072,96,3168,114C3264,132,3360,138,3456,126C3552,114,3648,84,3744,60C3840,36,3936,18,4032,12C4128,6,4224,12,4320,30C4416,48,4512,78,4608,75C4704,72,4800,36,4896,33C4992,30,5088,60,5184,84C5280,108,5376,126,5472,129C5568,132,5664,120,5760,102C5856,84,5952,60,6048,45C6144,30,6240,24,6336,36C6432,48,6528,78,6624,87C6720,96,6816,84,6864,78L6912,72L6912,180L6864,180C6816,180,6720,180,6624,180C6528,180,6432,180,6336,180C6240,180,6144,180,6048,180C5952,180,5856,180,5760,180C5664,180,5568,180,5472,180C5376,180,5280,180,5184,180C5088,180,4992,180,4896,180C4800,180,4704,180,4608,180C4512,180,4416,180,4320,180C4224,180,4128,180,4032,180C3936,180,3840,180,3744,180C3648,180,3552,180,3456,180C3360,180,3264,180,3168,180C3072,180,2976,180,2880,180C2784,180,2688,180,2592,180C2496,180,2400,180,2304,180C2208,180,2112,180,2016,180C1920,180,1824,180,1728,180C1632,180,1536,180,1440,180C1344,180,1248,180,1152,180C1056,180,960,180,864,180C768,180,672,180,576,180C480,180,384,180,288,180C192,180,96,180,48,180L0,180Z"/></svg>