<?xml version="1.0" standalone="no"?>
<svg xmlns:xlink="http://www.w3.org/1999/xlink" id="wave" style="transform:rotate(0deg); transition: 0.3s" viewBox="0 0 1440 120" version="1.1" xmlns="http://www.w3.org/2000/svg"><defs><linearGradient id="sw-gradient-0" x1="0" x2="0" y1="1" y2="0"><stop stop-color="rgba(255, 255, 255, 1)" offset="0%"/><stop stop-color="rgba(255, 255, 255, 1)" offset="100%"/></linearGradient></defs><path style="transform:translate(0, 0px); opacity:1" fill="url(#sw-gradient-0)" d="M0,12L30,18C60,24,120,36,180,36C240,36,300,24,360,18C420,12,480,12,540,28C600,44,660,76,720,74C780,72,840,36,900,30C960,24,1020,48,1080,56C1140,64,1200,56,1260,46C1320,36,1380,24,1440,32C1500,40,1560,68,1620,66C1680,64,1740,32,1800,28C1860,24,1920,48,1980,64C2040,80,2100,88,2160,86C2220,84,2280,72,2340,66C2400,60,2460,60,2520,66C2580,72,2640,84,2700,74C2760,64,2820,32,2880,30C2940,28,3000,56,3060,66C3120,76,3180,68,3240,66C3300,64,3360,68,3420,58C3480,48,3540,24,3600,18C3660,12,3720,24,3780,36C3840,48,3900,60,3960,68C4020,76,4080,80,4140,74C4200,68,4260,52,4290,44L4320,36L4320,120L4290,120C4260,120,4200,120,4140,120C4080,120,4020,120,3960,120C3900,120,3840,120,3780,120C3720,120,3660,120,3600,120C3540,120,3480,120,3420,120C3360,120,3300,120,3240,120C3180,120,3120,120,3060,120C3000,120,2940,120,2880,120C2820,120,2760,120,2700,120C2640,120,2580,120,2520,120C2460,120,2400,120,2340,120C2280,120,2220,120,2160,120C2100,120,2040,120,1980,120C1920,120,1860,120,1800,120C1740,120,1680,120,1620,120C1560,120,1500,120,1440,120C1380,120,1320,120,1260,120C1200,120,1140,120,1080,120C1020,120,960,120,900,120C840,120,780,120,720,120C660,120,600,120,540,120C480,120,420,120,360,120C300,120,240,120,180,120C120,120,60,120,30,120L0,120Z"/></svg>