<?xml version="1.0" standalone="no"?>
<svg xmlns:xlink="http://www.w3.org/1999/xlink" id="wave" style="transform:rotate(0deg); transition: 0.3s" viewBox="0 0 1440 270" version="1.1" xmlns="http://www.w3.org/2000/svg"><defs><linearGradient id="sw-gradient-0" x1="0" x2="0" y1="1" y2="0"><stop stop-color="rgba(55, 6, 23, 1)" offset="0%"/><stop stop-color="rgba(157, 2, 8, 1)" offset="100%"/></linearGradient></defs><path style="transform:translate(0, 0px); opacity:1" fill="url(#sw-gradient-0)" d="M0,162L48,153C96,144,192,126,288,121.5C384,117,480,126,576,135C672,144,768,153,864,130.5C960,108,1056,54,1152,40.5C1248,27,1344,54,1440,58.5C1536,63,1632,45,1728,49.5C1824,54,1920,81,2016,99C2112,117,2208,126,2304,108C2400,90,2496,45,2592,27C2688,9,2784,18,2880,40.5C2976,63,3072,99,3168,130.5C3264,162,3360,189,3456,207C3552,225,3648,234,3744,216C3840,198,3936,153,4032,153C4128,153,4224,198,4320,211.5C4416,225,4512,207,4608,207C4704,207,4800,225,4896,220.5C4992,216,5088,189,5184,153C5280,117,5376,72,5472,85.5C5568,99,5664,171,5760,193.5C5856,216,5952,189,6048,175.5C6144,162,6240,162,6336,157.5C6432,153,6528,144,6624,153C6720,162,6816,189,6864,202.5L6912,216L6912,270L6864,270C6816,270,6720,270,6624,270C6528,270,6432,270,6336,270C6240,270,6144,270,6048,270C5952,270,5856,270,5760,270C5664,270,5568,270,5472,270C5376,270,5280,270,5184,270C5088,270,4992,270,4896,270C4800,270,4704,270,4608,270C4512,270,4416,270,4320,270C4224,270,4128,270,4032,270C3936,270,3840,270,3744,270C3648,270,3552,270,3456,270C3360,270,3264,270,3168,270C3072,270,2976,270,2880,270C2784,270,2688,270,2592,270C2496,270,2400,270,2304,270C2208,270,2112,270,2016,270C1920,270,1824,270,1728,270C1632,270,1536,270,1440,270C1344,270,1248,270,1152,270C1056,270,960,270,864,270C768,270,672,270,576,270C480,270,384,270,288,270C192,270,96,270,48,270L0,270Z"/><defs><linearGradient id="sw-gradient-1" x1="0" x2="0" y1="1" y2="0"><stop stop-color="rgba(157, 2, 8, 1)" offset="0%"/><stop stop-color="rgba(220, 47, 2, 1)" offset="100%"/></linearGradient></defs><path style="transform:translate(0, 50px); opacity:0.9" fill="url(#sw-gradient-1)" d="M0,27L48,31.5C96,36,192,45,288,40.5C384,36,480,18,576,31.5C672,45,768,90,864,108C960,126,1056,117,1152,117C1248,117,1344,126,1440,144C1536,162,1632,189,1728,184.5C1824,180,1920,144,2016,108C2112,72,2208,36,2304,22.5C2400,9,2496,18,2592,40.5C2688,63,2784,99,2880,126C2976,153,3072,171,3168,184.5C3264,198,3360,207,3456,175.5C3552,144,3648,72,3744,67.5C3840,63,3936,126,4032,153C4128,180,4224,171,4320,139.5C4416,108,4512,54,4608,54C4704,54,4800,108,4896,112.5C4992,117,5088,72,5184,72C5280,72,5376,117,5472,148.5C5568,180,5664,198,5760,171C5856,144,5952,72,6048,63C6144,54,6240,108,6336,117C6432,126,6528,90,6624,94.5C6720,99,6816,144,6864,166.5L6912,189L6912,270L6864,270C6816,270,6720,270,6624,270C6528,270,6432,270,6336,270C6240,270,6144,270,6048,270C5952,270,5856,270,5760,270C5664,270,5568,270,5472,270C5376,270,5280,270,5184,270C5088,270,4992,270,4896,270C4800,270,4704,270,4608,270C4512,270,4416,270,4320,270C4224,270,4128,270,4032,270C3936,270,3840,270,3744,270C3648,270,3552,270,3456,270C3360,270,3264,270,3168,270C3072,270,2976,270,2880,270C2784,270,2688,270,2592,270C2496,270,2400,270,2304,270C2208,270,2112,270,2016,270C1920,270,1824,270,1728,270C1632,270,1536,270,1440,270C1344,270,1248,270,1152,270C1056,270,960,270,864,270C768,270,672,270,576,270C480,270,384,270,288,270C192,270,96,270,48,270L0,270Z"/><defs><linearGradient id="sw-gradient-2" x1="0" x2="0" y1="1" y2="0"><stop stop-color="rgba(220, 47, 2, 1)" offset="0%"/><stop stop-color="rgba(255, 179, 11, 1)" offset="100%"/></linearGradient></defs><path style="transform:translate(0, 100px); opacity:0.8" fill="url(#sw-gradient-2)" d="M0,162L48,144C96,126,192,90,288,90C384,90,480,126,576,135C672,144,768,126,864,121.5C960,117,1056,126,1152,108C1248,90,1344,45,1440,54C1536,63,1632,126,1728,166.5C1824,207,1920,225,2016,193.5C2112,162,2208,81,2304,72C2400,63,2496,126,2592,148.5C2688,171,2784,153,2880,121.5C2976,90,3072,45,3168,49.5C3264,54,3360,108,3456,126C3552,144,3648,126,3744,121.5C3840,117,3936,126,4032,112.5C4128,99,4224,63,4320,81C4416,99,4512,171,4608,193.5C4704,216,4800,189,4896,175.5C4992,162,5088,162,5184,153C5280,144,5376,126,5472,103.5C5568,81,5664,54,5760,40.5C5856,27,5952,27,6048,31.5C6144,36,6240,45,6336,63C6432,81,6528,108,6624,126C6720,144,6816,153,6864,157.5L6912,162L6912,270L6864,270C6816,270,6720,270,6624,270C6528,270,6432,270,6336,270C6240,270,6144,270,6048,270C5952,270,5856,270,5760,270C5664,270,5568,270,5472,270C5376,270,5280,270,5184,270C5088,270,4992,270,4896,270C4800,270,4704,270,4608,270C4512,270,4416,270,4320,270C4224,270,4128,270,4032,270C3936,270,3840,270,3744,270C3648,270,3552,270,3456,270C3360,270,3264,270,3168,270C3072,270,2976,270,2880,270C2784,270,2688,270,2592,270C2496,270,2400,270,2304,270C2208,270,2112,270,2016,270C1920,270,1824,270,1728,270C1632,270,1536,270,1440,270C1344,270,1248,270,1152,270C1056,270,960,270,864,270C768,270,672,270,576,270C480,270,384,270,288,270C192,270,96,270,48,270L0,270Z"/></svg>