<?xml version="1.0" standalone="no"?>
<svg xmlns:xlink="http://www.w3.org/1999/xlink" id="wave" style="transform:rotate(180deg); transition: 0.3s" viewBox="0 0 1440 170" version="1.1" xmlns="http://www.w3.org/2000/svg"><defs><linearGradient id="sw-gradient-0" x1="0" x2="0" y1="1" y2="0"><stop stop-color="rgba(255, 255, 255, 1)" offset="0%"/><stop stop-color="rgba(255, 255, 255, 1)" offset="100%"/></linearGradient></defs><path style="transform:translate(0, 0px); opacity:1" fill="url(#sw-gradient-0)" d="M0,136L26.7,121.8C53.3,108,107,79,160,76.5C213.3,74,267,96,320,104.8C373.3,113,427,108,480,104.8C533.3,102,587,102,640,96.3C693.3,91,747,79,800,62.3C853.3,45,907,23,960,25.5C1013.3,28,1067,57,1120,65.2C1173.3,74,1227,62,1280,68C1333.3,74,1387,96,1440,113.3C1493.3,130,1547,142,1600,124.7C1653.3,108,1707,62,1760,48.2C1813.3,34,1867,51,1920,59.5C1973.3,68,2027,68,2080,79.3C2133.3,91,2187,113,2240,119C2293.3,125,2347,113,2400,102C2453.3,91,2507,79,2560,65.2C2613.3,51,2667,34,2720,36.8C2773.3,40,2827,62,2880,59.5C2933.3,57,2987,28,3040,19.8C3093.3,11,3147,23,3200,22.7C3253.3,23,3307,11,3360,5.7C3413.3,0,3467,0,3520,11.3C3573.3,23,3627,45,3680,51C3733.3,57,3787,45,3813,39.7L3840,34L3840,170L3813.3,170C3786.7,170,3733,170,3680,170C3626.7,170,3573,170,3520,170C3466.7,170,3413,170,3360,170C3306.7,170,3253,170,3200,170C3146.7,170,3093,170,3040,170C2986.7,170,2933,170,2880,170C2826.7,170,2773,170,2720,170C2666.7,170,2613,170,2560,170C2506.7,170,2453,170,2400,170C2346.7,170,2293,170,2240,170C2186.7,170,2133,170,2080,170C2026.7,170,1973,170,1920,170C1866.7,170,1813,170,1760,170C1706.7,170,1653,170,1600,170C1546.7,170,1493,170,1440,170C1386.7,170,1333,170,1280,170C1226.7,170,1173,170,1120,170C1066.7,170,1013,170,960,170C906.7,170,853,170,800,170C746.7,170,693,170,640,170C586.7,170,533,170,480,170C426.7,170,373,170,320,170C266.7,170,213,170,160,170C106.7,170,53,170,27,170L0,170Z"/></svg>