<?xml version="1.0" standalone="no"?>
<svg xmlns:xlink="http://www.w3.org/1999/xlink" id="wave" style="transform:rotate(0deg); transition: 0.3s" viewBox="0 0 1440 200" version="1.1" xmlns="http://www.w3.org/2000/svg"><defs><linearGradient id="sw-gradient-0" x1="0" x2="0" y1="1" y2="0"><stop stop-color="rgba(244, 140, 6, 1)" offset="0%"/><stop stop-color="rgba(244, 140, 6, 1)" offset="100%"/></linearGradient></defs><path style="transform:translate(0, 0px); opacity:1" fill="url(#sw-gradient-0)" d="M0,120L40,116.7C80,113,160,107,240,100C320,93,400,87,480,76.7C560,67,640,53,720,43.3C800,33,880,27,960,20C1040,13,1120,7,1200,10C1280,13,1360,27,1440,26.7C1520,27,1600,13,1680,23.3C1760,33,1840,67,1920,96.7C2000,127,2080,153,2160,156.7C2240,160,2320,140,2400,133.3C2480,127,2560,133,2640,133.3C2720,133,2800,127,2880,103.3C2960,80,3040,40,3120,46.7C3200,53,3280,107,3360,120C3440,133,3520,107,3600,106.7C3680,107,3760,133,3840,136.7C3920,140,4000,120,4080,110C4160,100,4240,100,4320,113.3C4400,127,4480,153,4560,140C4640,127,4720,73,4800,53.3C4880,33,4960,47,5040,66.7C5120,87,5200,113,5280,120C5360,127,5440,113,5520,110C5600,107,5680,113,5720,116.7L5760,120L5760,200L5720,200C5680,200,5600,200,5520,200C5440,200,5360,200,5280,200C5200,200,5120,200,5040,200C4960,200,4880,200,4800,200C4720,200,4640,200,4560,200C4480,200,4400,200,4320,200C4240,200,4160,200,4080,200C4000,200,3920,200,3840,200C3760,200,3680,200,3600,200C3520,200,3440,200,3360,200C3280,200,3200,200,3120,200C3040,200,2960,200,2880,200C2800,200,2720,200,2640,200C2560,200,2480,200,2400,200C2320,200,2240,200,2160,200C2080,200,2000,200,1920,200C1840,200,1760,200,1680,200C1600,200,1520,200,1440,200C1360,200,1280,200,1200,200C1120,200,1040,200,960,200C880,200,800,200,720,200C640,200,560,200,480,200C400,200,320,200,240,200C160,200,80,200,40,200L0,200Z"/><defs><linearGradient id="sw-gradient-1" x1="0" x2="0" y1="1" y2="0"><stop stop-color="rgba(250, 163, 7, 1)" offset="0%"/><stop stop-color="rgba(250, 163, 7, 1)" offset="100%"/></linearGradient></defs><path style="transform:translate(0, 50px); opacity:0.9" fill="url(#sw-gradient-1)" d="M0,100L40,93.3C80,87,160,73,240,86.7C320,100,400,140,480,143.3C560,147,640,113,720,103.3C800,93,880,107,960,106.7C1040,107,1120,93,1200,90C1280,87,1360,93,1440,96.7C1520,100,1600,100,1680,103.3C1760,107,1840,113,1920,116.7C2000,120,2080,120,2160,120C2240,120,2320,120,2400,116.7C2480,113,2560,107,2640,113.3C2720,120,2800,140,2880,143.3C2960,147,3040,133,3120,136.7C3200,140,3280,160,3360,160C3440,160,3520,140,3600,133.3C3680,127,3760,133,3840,140C3920,147,4000,153,4080,130C4160,107,4240,53,4320,30C4400,7,4480,13,4560,30C4640,47,4720,73,4800,76.7C4880,80,4960,60,5040,50C5120,40,5200,40,5280,40C5360,40,5440,40,5520,36.7C5600,33,5680,27,5720,23.3L5760,20L5760,200L5720,200C5680,200,5600,200,5520,200C5440,200,5360,200,5280,200C5200,200,5120,200,5040,200C4960,200,4880,200,4800,200C4720,200,4640,200,4560,200C4480,200,4400,200,4320,200C4240,200,4160,200,4080,200C4000,200,3920,200,3840,200C3760,200,3680,200,3600,200C3520,200,3440,200,3360,200C3280,200,3200,200,3120,200C3040,200,2960,200,2880,200C2800,200,2720,200,2640,200C2560,200,2480,200,2400,200C2320,200,2240,200,2160,200C2080,200,2000,200,1920,200C1840,200,1760,200,1680,200C1600,200,1520,200,1440,200C1360,200,1280,200,1200,200C1120,200,1040,200,960,200C880,200,800,200,720,200C640,200,560,200,480,200C400,200,320,200,240,200C160,200,80,200,40,200L0,200Z"/></svg>